<mxfile host="app.diagrams.net" agent="Mozilla/5.0 (Macintosh; Intel Mac OS X 10_15_7) AppleWebKit/605.1.15 (KHTML, like Gecko) Version/18.6 Safari/605.1.15" version="28.0.7">
  <diagram id="SXEhtUhzXrhcaqgDGqhV" name="Page-1">
    <mxGraphModel dx="1389" dy="860" grid="1" gridSize="10" guides="1" tooltips="1" connect="1" arrows="1" fold="1" page="1" pageScale="1" pageWidth="850" pageHeight="1100" math="0" shadow="0">
      <root>
        <mxCell id="0" />
        <mxCell id="1" parent="0" />
        <mxCell id="QSkeJZtm45lnXEBfqNVC-25" value="Data Dictionary" style="swimlane;whiteSpace=wrap;html=1;" vertex="1" parent="1">
          <mxGeometry x="290" y="270" width="130" height="140" as="geometry">
            <mxRectangle x="330" y="330" width="120" height="30" as="alternateBounds" />
          </mxGeometry>
        </mxCell>
        <mxCell id="QSkeJZtm45lnXEBfqNVC-30" style="edgeStyle=orthogonalEdgeStyle;rounded=0;orthogonalLoop=1;jettySize=auto;html=1;exitX=0.75;exitY=1;exitDx=0;exitDy=0;entryX=0;entryY=0.25;entryDx=0;entryDy=0;" edge="1" parent="1" source="QSkeJZtm45lnXEBfqNVC-27" target="QSkeJZtm45lnXEBfqNVC-25">
          <mxGeometry relative="1" as="geometry" />
        </mxCell>
        <mxCell id="QSkeJZtm45lnXEBfqNVC-34" value="Dump &amp;amp;&amp;nbsp;&lt;div&gt;Restore&lt;/div&gt;" style="edgeStyle=orthogonalEdgeStyle;rounded=0;orthogonalLoop=1;jettySize=auto;html=1;startArrow=classicThin;startFill=1;endArrow=classicThin;endFill=1;" edge="1" parent="1" source="QSkeJZtm45lnXEBfqNVC-27" target="QSkeJZtm45lnXEBfqNVC-33">
          <mxGeometry relative="1" as="geometry" />
        </mxCell>
        <mxCell id="QSkeJZtm45lnXEBfqNVC-27" value="User&lt;div&gt;Inputs&lt;/div&gt;" style="html=1;strokeWidth=2;shape=manualInput;whiteSpace=wrap;rounded=1;size=27;arcSize=11;verticalAlign=bottom;" vertex="1" parent="1">
          <mxGeometry x="155" y="180" width="100" height="60" as="geometry" />
        </mxCell>
        <mxCell id="QSkeJZtm45lnXEBfqNVC-28" value="storage" style="strokeWidth=2;html=1;shape=mxgraph.flowchart.database;whiteSpace=wrap;" vertex="1" parent="1">
          <mxGeometry x="175" y="400" width="60" height="60" as="geometry" />
        </mxCell>
        <mxCell id="QSkeJZtm45lnXEBfqNVC-29" value="Load &amp;amp; Save" style="edgeStyle=orthogonalEdgeStyle;rounded=0;orthogonalLoop=1;jettySize=auto;html=1;entryX=0.5;entryY=0;entryDx=0;entryDy=0;entryPerimeter=0;startArrow=classicThin;startFill=1;endArrow=classicThin;endFill=1;" edge="1" parent="1" source="QSkeJZtm45lnXEBfqNVC-27" target="QSkeJZtm45lnXEBfqNVC-28">
          <mxGeometry x="-0.125" y="-40" relative="1" as="geometry">
            <Array as="points">
              <mxPoint x="206" y="320" />
              <mxPoint x="206" y="320" />
            </Array>
            <mxPoint as="offset" />
          </mxGeometry>
        </mxCell>
        <mxCell id="QSkeJZtm45lnXEBfqNVC-32" style="edgeStyle=orthogonalEdgeStyle;rounded=0;orthogonalLoop=1;jettySize=auto;html=1;entryX=1;entryY=0.25;entryDx=0;entryDy=0;exitX=0.25;exitY=1;exitDx=0;exitDy=0;" edge="1" parent="1" source="QSkeJZtm45lnXEBfqNVC-31" target="QSkeJZtm45lnXEBfqNVC-25">
          <mxGeometry relative="1" as="geometry" />
        </mxCell>
        <mxCell id="QSkeJZtm45lnXEBfqNVC-31" value="User&lt;div&gt;Controls&lt;/div&gt;" style="html=1;strokeWidth=2;shape=manualInput;whiteSpace=wrap;rounded=1;size=27;arcSize=11;verticalAlign=bottom;" vertex="1" parent="1">
          <mxGeometry x="425" y="180" width="100" height="60" as="geometry" />
        </mxCell>
        <mxCell id="QSkeJZtm45lnXEBfqNVC-33" value="Text&lt;div&gt;Widget&lt;/div&gt;" style="shape=parallelogram;html=1;strokeWidth=2;perimeter=parallelogramPerimeter;whiteSpace=wrap;rounded=1;arcSize=12;size=0.23;" vertex="1" parent="1">
          <mxGeometry x="327" y="190" width="70" height="40" as="geometry" />
        </mxCell>
        <mxCell id="QSkeJZtm45lnXEBfqNVC-36" style="edgeStyle=orthogonalEdgeStyle;rounded=0;orthogonalLoop=1;jettySize=auto;html=1;exitX=0.75;exitY=1;exitDx=0;exitDy=0;entryX=0;entryY=0.5;entryDx=0;entryDy=0;" edge="1" parent="1" source="QSkeJZtm45lnXEBfqNVC-31" target="QSkeJZtm45lnXEBfqNVC-35">
          <mxGeometry relative="1" as="geometry" />
        </mxCell>
        <mxCell id="QSkeJZtm45lnXEBfqNVC-39" style="edgeStyle=orthogonalEdgeStyle;rounded=0;orthogonalLoop=1;jettySize=auto;html=1;exitX=0;exitY=1;exitDx=0;exitDy=0;" edge="1" parent="1" source="QSkeJZtm45lnXEBfqNVC-35">
          <mxGeometry relative="1" as="geometry">
            <mxPoint x="420" y="340" as="targetPoint" />
          </mxGeometry>
        </mxCell>
        <mxCell id="QSkeJZtm45lnXEBfqNVC-35" value="e-ORP&lt;div&gt;Solver&lt;/div&gt;" style="ellipse;whiteSpace=wrap;html=1;aspect=fixed;" vertex="1" parent="1">
          <mxGeometry x="530" y="251" width="105" height="105" as="geometry" />
        </mxCell>
        <mxCell id="QSkeJZtm45lnXEBfqNVC-38" style="edgeStyle=orthogonalEdgeStyle;rounded=0;orthogonalLoop=1;jettySize=auto;html=1;exitX=0.5;exitY=1;exitDx=0;exitDy=0;" edge="1" parent="1" source="QSkeJZtm45lnXEBfqNVC-25">
          <mxGeometry relative="1" as="geometry">
            <mxPoint x="236" y="430" as="targetPoint" />
            <Array as="points">
              <mxPoint x="355" y="430" />
              <mxPoint x="236" y="430" />
            </Array>
          </mxGeometry>
        </mxCell>
        <mxCell id="QSkeJZtm45lnXEBfqNVC-42" style="edgeStyle=orthogonalEdgeStyle;rounded=0;orthogonalLoop=1;jettySize=auto;html=1;exitX=1;exitY=0.75;exitDx=0;exitDy=0;" edge="1" parent="1" source="QSkeJZtm45lnXEBfqNVC-25" target="QSkeJZtm45lnXEBfqNVC-40">
          <mxGeometry relative="1" as="geometry">
            <Array as="points">
              <mxPoint x="670" y="375" />
            </Array>
          </mxGeometry>
        </mxCell>
        <mxCell id="QSkeJZtm45lnXEBfqNVC-40" value="Plots &amp;amp;&lt;div&gt;Tables&lt;/div&gt;" style="shape=parallelogram;html=1;strokeWidth=2;perimeter=parallelogramPerimeter;whiteSpace=wrap;rounded=1;arcSize=12;size=0.23;" vertex="1" parent="1">
          <mxGeometry x="625" y="180" width="90" height="50" as="geometry" />
        </mxCell>
        <mxCell id="QSkeJZtm45lnXEBfqNVC-44" value="e-ORP Data Flow" style="text;html=1;align=center;verticalAlign=middle;whiteSpace=wrap;rounded=0;" vertex="1" parent="1">
          <mxGeometry x="395" y="130" width="60" height="30" as="geometry" />
        </mxCell>
      </root>
    </mxGraphModel>
  </diagram>
</mxfile>
